<svg width="12" height="13" viewBox="0 0 12 13" fill="none" xmlns="http://www.w3.org/2000/svg">
    <path fill-rule="evenodd" clip-rule="evenodd" d="M6 .8a6 6 0 1 0 0 12 6 6 0 0 0 0-12zm0 11.143A5.148 5.148 0 0 1 .857 6.8 5.149 5.149 0 0 1 6 1.657 5.149 5.149 0 0 1 11.143 6.8 5.149 5.149 0 0 1 6 11.943zm.856-6.429H4.714v.429h.428V9.8h-.428v.429h2.571V9.8h-.429V5.514zM5.395 4.62a.857.857 0 1 1 1.212-1.212.857.857 0 0 1-1.212 1.212z" fill="#00B783"/>
    <path fill-rule="evenodd" clip-rule="evenodd" d="M6 .8a6 6 0 1 0 0 12 6 6 0 0 0 0-12zm0 11.143A5.148 5.148 0 0 1 .857 6.8 5.149 5.149 0 0 1 6 1.657 5.149 5.149 0 0 1 11.143 6.8 5.149 5.149 0 0 1 6 11.943zm.856-6.429H4.714v.429h.428V9.8h-.428v.429h2.571V9.8h-.429V5.514zM5.395 4.62a.857.857 0 1 1 1.212-1.212.857.857 0 0 1-1.212 1.212z" fill="#2087FF"/>
    <path fill-rule="evenodd" clip-rule="evenodd" d="M6 .8a6 6 0 1 0 0 12 6 6 0 0 0 0-12zm0 11.143A5.148 5.148 0 0 1 .857 6.8 5.149 5.149 0 0 1 6 1.657 5.149 5.149 0 0 1 11.143 6.8 5.149 5.149 0 0 1 6 11.943zm.856-6.429H4.714v.429h.428V9.8h-.428v.429h2.571V9.8h-.429V5.514zM5.395 4.62a.857.857 0 1 1 1.212-1.212.857.857 0 0 1-1.212 1.212z" fill="#00D1FF"/>
</svg>
